<svg width="8106" height="1751" viewBox="0 0 8106 1751" fill="none" xmlns="http://www.w3.org/2000/svg">
<path d="M1548.63 611.789C1569.34 611.789 1586.14 595.145 1586.14 574.614C1586.14 554.082 1569.34 537.436 1548.63 537.436C1527.91 537.436 1511.11 554.082 1511.11 574.614C1511.11 595.145 1527.91 611.789 1548.63 611.789Z" fill="black"/>
<path d="M1745.03 923.3C1774.74 923.3 1798.81 899.443 1798.81 870.013C1798.81 840.58 1774.74 816.723 1745.03 816.723C1715.34 816.723 1691.26 840.58 1691.26 870.013C1691.26 899.443 1715.34 923.3 1745.03 923.3Z" fill="black"/>
<path d="M0 565.123H1538.77V591.387C1538.77 591.387 601.908 605.089 524.446 606.232C446.982 607.372 363.884 616.508 365.037 673.729C366.191 730.954 506.007 793.885 506.007 793.885C506.007 793.885 247.242 820.53 0 564.996V565.123Z" fill="black"/>
<path d="M206.275 856.807H1723.66V884.849C1723.66 884.849 771.565 899.564 688.598 900.834C605.627 902.104 524.579 907.179 517.666 948.415C507.55 1008.94 668.878 1102.06 668.878 1102.06C668.878 1102.06 471.317 1130.61 206.403 856.807H206.275Z" fill="black"/>
<path d="M485.779 1152.43H1535.69V1171.84C1535.69 1171.84 894.989 1185.67 837.628 1186.56C780.268 1187.45 724.188 1191 719.32 1219.42C712.28 1261.29 857.218 1338.82 857.218 1338.82C857.218 1338.82 669.13 1341.86 485.779 1152.43Z" fill="black"/>
<path d="M1548.62 1188.6C1565.17 1188.6 1578.59 1175.3 1578.59 1158.91C1578.59 1142.51 1565.17 1129.22 1548.62 1129.22C1532.08 1129.22 1518.66 1142.51 1518.66 1158.91C1518.66 1175.3 1532.08 1188.6 1548.62 1188.6Z" fill="black"/>
<path d="M1523.79 1016.55C1571.67 1047.51 1649.26 1106.89 1700.73 1138.73C2016.73 1335.01 2500.33 1484.35 2599.82 1325.62C2683.17 1192.53 2383.43 889.671 1959.24 663.193C1813.02 585.163 1667.7 529.081 1543.63 484.295C1660.14 529.97 1818.66 625.51 1953.48 705.823C2334.65 933.063 2606.73 1202.04 2545.4 1294.03C2478.05 1394.9 2149.89 1302.28 1896.5 1201.16C1753.23 1143.93 1571.41 1048.65 1523.79 1016.68V1016.55Z" fill="black"/>
<path d="M1896.5 541.398C2149.89 440.276 2478.05 347.655 2545.4 448.522C2606.74 540.381 2334.65 809.493 1953.48 1036.73C1818.66 1117.04 1660.15 1212.58 1543.63 1258.26C1667.7 1213.47 1813.02 1157.39 1959.24 1079.36C2383.31 852.885 2683.17 549.898 2599.82 416.93C2500.33 258.205 2016.73 407.54 1700.73 603.823C1649.26 635.797 1571.67 695.174 1523.79 726.005C1571.41 694.031 1753.23 598.746 1896.5 541.525V541.398Z" fill="black"/>
<path d="M1527.38 1262.82C1560.16 1602.09 1665.92 1731 1774.24 1731C1938.9 1731 2072.44 1343.51 2072.44 865.563C2072.44 387.613 1938.9 0 1774.11 0C1646.71 0 1557.21 144.768 1528.66 454.986C1580.26 218.104 1658.75 46.0568 1760.28 46.0568C1906.63 46.0568 2025.32 415.02 2025.32 870.133C2025.32 1325.25 1906.63 1694.21 1760.28 1694.21C1659.64 1694.21 1572.06 1519.87 1527.12 1262.95" fill="black"/>
<path d="M2713.77 566.476C2713.77 536.347 2719.36 507.727 2730.54 480.612C2741.72 453.497 2757.14 429.493 2776.8 408.604C2796.46 387.715 2819.21 371.345 2845.04 359.496C2870.86 347.646 2898.81 341.719 2928.88 341.719C2958.95 341.719 2985.84 347.646 3011.86 359.496C3037.87 371.345 3060.92 387.715 3080.95 408.604C3101 429.493 3116.63 453.497 3127.8 480.612C3138.97 507.727 3144.56 536.347 3144.56 566.476C3144.56 596.604 3138.97 626.331 3127.8 653.245C3116.63 680.161 3100.9 703.961 3080.67 724.649C3060.44 745.337 3037.4 761.406 3011.57 772.855C2985.74 784.303 2957.99 790.029 2928.3 790.029C2898.62 790.029 2870.86 784.303 2845.04 772.855C2819.21 761.406 2796.46 745.538 2776.8 725.253C2757.14 704.967 2741.72 681.265 2730.54 654.15C2719.36 627.035 2713.77 597.811 2713.77 566.476ZM2783.16 565.875C2783.16 587.968 2786.92 608.455 2794.44 627.336C2801.96 646.215 2812.46 662.786 2825.95 677.047C2839.45 691.309 2855.16 702.456 2873.08 710.488C2891.01 718.524 2910.18 722.54 2930.62 722.54C2951.05 722.54 2970.03 718.524 2987.57 710.488C3005.11 702.456 3020.34 691.309 3033.24 677.047C3046.18 662.786 3056.39 646.215 3063.89 627.336C3071.41 608.455 3075.19 588.169 3075.19 566.476C3075.19 544.785 3071.31 523.896 3063.61 505.015C3055.91 486.134 3045.5 469.465 3032.39 455.002C3019.28 440.54 3003.86 429.292 2986.13 421.259C2968.39 413.224 2949.31 409.207 2928.88 409.207C2908.45 409.207 2889.37 413.324 2871.63 421.558C2853.9 429.795 2838.38 441.042 2825.09 455.304C2811.79 469.565 2801.48 486.234 2794.15 505.316C2786.83 524.398 2783.16 544.584 2783.16 565.875Z" fill="black"/>
<path d="M3460.61 346.543C3492.59 346.543 3519.96 352.168 3542.71 363.416C3565.46 374.663 3582.89 390.832 3595.05 411.923C3607.17 433.01 3613.26 458.218 3613.26 487.545C3613.26 504.817 3610.65 522.192 3605.44 539.666C3600.25 557.139 3592.05 572.808 3580.88 586.665C3569.68 600.524 3554.94 611.774 3536.65 620.41C3518.33 629.046 3496.26 633.365 3470.42 633.365H3409.13V785.212H3341.49V346.543H3460.61ZM3469.84 564.672C3484.89 564.672 3497.32 562.061 3507.16 556.838C3516.97 551.617 3524.69 545.09 3530.28 537.255C3535.87 529.421 3539.92 521.086 3542.41 512.249C3544.92 503.412 3546.18 495.578 3546.18 488.749C3546.18 481.517 3545.02 473.686 3542.71 465.248C3540.39 456.813 3536.65 448.679 3531.44 440.845C3526.23 433.01 3518.71 426.584 3508.89 421.562C3499.05 416.542 3486.62 414.031 3471.58 414.031H3409.13V564.672H3469.84Z" fill="black"/>
<path d="M3943.34 346.543C3975.35 346.543 4002.73 352.168 4025.47 363.416C4048.19 374.663 4065.66 390.832 4077.78 411.923C4089.94 433.01 4096 458.218 4096 487.545C4096 504.817 4093.41 522.192 4088.2 539.666C4082.99 557.139 4074.82 572.808 4063.62 586.665C4052.45 600.524 4037.7 611.774 4019.38 620.41C4001.09 629.046 3979 633.365 3953.18 633.365H3891.89V785.212H3824.23V346.543H3943.34ZM3952.6 564.672C3967.63 564.672 3980.08 562.061 3989.89 556.838C3999.73 551.617 4007.43 545.09 4013.02 537.255C4018.63 529.421 4022.66 521.086 4025.17 512.249C4027.69 503.412 4028.92 495.578 4028.92 488.749C4028.92 481.517 4027.76 473.686 4025.47 465.248C4023.16 456.813 4019.38 448.679 4014.18 440.845C4008.99 433.01 4001.47 426.584 3991.63 421.562C3981.79 416.542 3969.36 414.031 3954.34 414.031H3891.89V564.672H3952.6Z" fill="black"/>
<path d="M4303.58 346.543H4582.88V414.031H4371.24V530.929H4559.73V598.415H4371.24V717.723H4590.96V785.212H4303.58V346.543Z" fill="black"/>
<path d="M5169.94 800.875L4846.71 474.283L4866.94 482.72L4868.1 785.208H4799.86V331.477H4803.33L5120.8 658.066L5105.75 653.245L5104.59 346.54H5171.67V800.875H5169.94Z" fill="black"/>
<path d="M5721.24 346.543V785.212H5653.58V599.018H5446.57V785.212H5378.91V346.543H5446.57V531.53H5653.58V346.543H5721.24Z" fill="black"/>
<path d="M5923.71 346.543H6203V414.031H5991.37V530.929H6179.88V598.415H5991.37V717.723H6211.1V785.212H5923.71V346.543Z" fill="black"/>
<path d="M6409.78 346.543H6477.41V785.212H6409.78V346.543Z" fill="black"/>
<path d="M6690.13 785.21V330.875H6690.71L6917.37 665.299L6888.46 658.671L7113.99 330.875H7115.14V785.21H7048.06V489.35L7052.11 524.9L6900.03 749.657H6898.88L6743.91 524.9L6755.48 492.364V785.21H6690.13Z" fill="black"/>
<path d="M7319.32 346.543H7598.61V414.031H7386.98V530.929H7575.49V598.415H7386.98V717.723H7606.72V785.212H7319.32V346.543Z" fill="black"/>
<path d="M7921.21 346.543C7943.7 346.543 7964.22 349.758 7982.79 356.185C8001.34 362.611 8017.27 371.75 8030.57 383.601C8043.88 395.452 8054.09 410.015 8061.21 427.287C8068.35 444.56 8071.9 464.647 8071.9 487.545C8071.9 504.817 8069.45 522.092 8064.58 539.364C8059.71 556.639 8051.76 572.305 8040.7 586.366C8029.64 600.423 8015.11 611.674 7997.13 620.109C7979.12 628.544 7957 632.761 7930.78 632.761H7871.18V785.212H7805.39V346.543H7921.21ZM7929.65 564.672C7943.89 564.672 7955.88 562.262 7965.64 557.441C7975.38 552.62 7983.06 546.394 7988.69 538.761C7994.32 531.13 7998.33 522.994 8000.78 514.358C8003.22 505.722 8004.42 497.586 8004.42 489.955C8004.42 482.724 8003.29 474.789 8001.04 466.153C7998.82 457.517 7994.95 449.179 7989.52 441.146C7984.09 433.111 7976.7 426.584 7967.33 421.562C7957.96 416.542 7946.14 414.031 7931.9 414.031H7871.18V564.672H7929.65ZM8000.48 607.453L8105.07 785.212H8028.62L7922.34 609.263L8000.48 607.453Z" fill="black"/>
<path d="M2788.38 966.125H3068.01V1033.7H2856.1V1150.75H3044.85V1218.32H2856.1V1337.78H3076.12V1405.36H2788.38V966.125Z" fill="black"/>
<path d="M3657.83 1420.12L3334.92 1093.11L3355.13 1101.56L3356.29 1404.44H3288.12V950.125H3291.59L3608.73 1277.13L3593.7 1272.31L3592.55 965.207H3659.56V1420.12H3657.83Z" fill="black"/>
<path d="M3872.56 966.125H4152.19V1033.7H3940.28V1150.75H4129.04V1218.32H3940.28V1337.78H4160.3V1405.36H3872.56V966.125Z" fill="black"/>
<path d="M4486.09 965.957C4509.27 965.957 4530.38 969.176 4549.5 975.611C4568.6 982.046 4585 991.197 4598.7 1003.06C4612.41 1014.93 4622.92 1029.51 4630.27 1046.8C4637.6 1064.1 4641.26 1084.21 4641.26 1107.14C4641.26 1124.43 4638.76 1141.73 4633.72 1159.03C4628.71 1176.32 4620.52 1192.01 4609.14 1206.09C4597.75 1220.16 4582.78 1231.43 4564.26 1239.87C4545.72 1248.32 4522.95 1252.54 4495.94 1252.54H4434.57V1405.19H4366.82V965.957H4486.09ZM4494.78 1184.37C4509.44 1184.37 4521.79 1181.95 4531.84 1177.13C4541.87 1172.3 4549.78 1166.06 4555.57 1158.42C4561.37 1150.78 4565.52 1142.63 4568.02 1133.99C4570.54 1125.34 4571.8 1117.19 4571.8 1109.55C4571.8 1102.31 4570.64 1094.37 4568.32 1085.72C4566 1077.07 4562.05 1068.73 4556.43 1060.68C4550.84 1052.64 4543.23 1046.1 4533.58 1041.07C4523.93 1036.05 4511.76 1033.53 4497.1 1033.53H4434.57V1184.37H4494.78ZM4567.74 1227.2L4675.42 1405.19H4596.69L4487.25 1229.01L4567.74 1227.2Z" fill="black"/>
<path d="M5188.71 1364.76C5182.53 1369.99 5174.32 1375.32 5164.09 1380.75C5153.86 1386.18 5142.1 1391.01 5128.8 1395.23C5115.47 1399.46 5101.86 1402.98 5087.96 1405.79C5074.07 1408.61 5061.15 1410.02 5049.18 1410.02C5014.82 1410.02 4984.03 1404.59 4956.82 1393.73C4929.61 1382.87 4906.36 1367.88 4887.06 1348.78C4867.76 1329.67 4852.89 1307.15 4842.46 1281.2C4832.06 1255.26 4826.84 1226.6 4826.84 1195.23C4826.84 1157.42 4832.74 1123.93 4844.5 1094.77C4856.27 1065.61 4872.09 1041.07 4891.97 1021.16C4911.85 1001.25 4934.83 986.27 4960.88 976.216C4986.93 966.159 5014.44 961.131 5043.39 961.131C5068.86 961.131 5092.49 964.148 5114.31 970.181C5136.13 976.216 5154.95 983.856 5170.77 993.108L5148.17 1058.27C5140.84 1053.44 5131.49 1049.12 5120.1 1045.3C5108.72 1041.48 5097.03 1038.26 5085.06 1035.64C5073.12 1033.03 5062.11 1031.72 5052.08 1031.72C5028.14 1031.72 5006.53 1035.24 4987.23 1042.28C4967.93 1049.32 4951.53 1059.68 4938 1073.35C4924.5 1087.03 4914.17 1103.62 4907.04 1123.13C4899.88 1142.64 4896.33 1164.66 4896.33 1189.19C4896.33 1212.12 4900.18 1232.84 4907.89 1251.34C4915.63 1269.84 4926.13 1285.73 4939.46 1299C4952.76 1312.27 4968.89 1322.43 4987.81 1329.47C5006.7 1336.51 5027.57 1340.03 5050.34 1340.03C5063.47 1340.03 5076.19 1338.82 5088.54 1336.41C5100.91 1334 5111.51 1330.17 5120.38 1324.95V1251.94H5041.07V1183.76H5188.71V1364.76Z" fill="black"/>
<path d="M5515.56 1262.2L5359.8 965.957H5442.59L5561.28 1202.47L5540.45 1203.67L5657.98 965.957H5740.77L5582.72 1262.2V1405.19H5515.56V1262.2Z" fill="black"/>
</svg>
