<svg width="2600" height="2600" viewBox="0 0 2600 2600" fill="none" xmlns="http://www.w3.org/2000/svg">
<rect width="2600" height="2600" rx="1300" fill="white"/>
<path d="M50 1300.17C50 1291.69 51.6544 1283.64 54.9624 1276.01C58.2705 1268.38 62.8331 1261.62 68.651 1255.75C74.4682 1249.87 81.1983 1245.26 88.8411 1241.93C96.484 1238.59 104.754 1236.92 113.652 1236.92C122.549 1236.92 130.506 1238.59 138.205 1241.93C145.903 1245.26 152.723 1249.87 158.65 1255.75C164.584 1261.62 169.207 1268.38 172.513 1276.01C175.819 1283.64 177.472 1291.69 177.472 1300.17C177.472 1308.65 175.819 1317.01 172.513 1324.58C169.207 1332.16 164.554 1338.86 158.568 1344.68C152.582 1350.5 145.762 1355.02 138.119 1358.24C130.477 1361.46 122.264 1363.07 113.481 1363.07C104.697 1363.07 96.484 1361.46 88.8411 1358.24C81.1983 1355.02 74.4682 1350.56 68.651 1344.85C62.8331 1339.14 58.2705 1332.47 54.9624 1324.84C51.6544 1317.21 50 1308.99 50 1300.17ZM70.5325 1300C70.5325 1306.22 71.6449 1311.98 73.8696 1317.29C76.0936 1322.61 79.2021 1327.27 83.1944 1331.28C87.1875 1335.3 91.8357 1338.43 97.1399 1340.69C102.444 1342.95 108.119 1344.08 114.165 1344.08C120.211 1344.08 125.828 1342.95 131.019 1340.69C136.209 1338.43 140.713 1335.3 144.533 1331.28C148.36 1327.27 151.383 1322.61 153.602 1317.29C155.828 1311.98 156.945 1306.27 156.945 1300.17C156.945 1294.07 155.798 1288.19 153.52 1282.87C151.241 1277.56 148.159 1272.87 144.28 1268.8C140.401 1264.73 135.838 1261.57 130.591 1259.31C125.344 1257.05 119.698 1255.92 113.652 1255.92C107.606 1255.92 101.959 1257.07 96.7118 1259.39C91.4649 1261.71 86.8733 1264.87 82.9383 1268.89C79.0026 1272.9 75.9514 1277.59 73.784 1282.96C71.6166 1288.33 70.5325 1294.01 70.5325 1300Z" fill="black"/>
<path d="M264.569 1238.28C274.033 1238.28 282.133 1239.86 288.864 1243.03C295.595 1246.19 300.755 1250.74 304.351 1256.68C307.94 1262.61 309.742 1269.71 309.742 1277.96C309.742 1282.82 308.967 1287.71 307.426 1292.62C305.892 1297.54 303.465 1301.95 300.159 1305.85C296.846 1309.75 292.483 1312.91 287.07 1315.34C281.65 1317.77 275.12 1318.99 267.473 1318.99H249.336V1361.72H229.322V1238.28H264.569ZM267.302 1299.66C271.754 1299.66 275.432 1298.93 278.344 1297.46C281.247 1295.99 283.533 1294.15 285.186 1291.95C286.839 1289.74 288.038 1287.4 288.775 1284.91C289.519 1282.42 289.892 1280.22 289.892 1278.3C289.892 1276.26 289.549 1274.06 288.864 1271.68C288.179 1269.31 287.07 1267.02 285.529 1264.82C283.987 1262.61 281.761 1260.8 278.857 1259.39C275.946 1257.98 272.268 1257.27 267.816 1257.27H249.336V1299.66H267.302Z" fill="black"/>
<path d="M394.435 1238.28C403.905 1238.28 412.006 1239.86 418.737 1243.03C425.46 1246.19 430.627 1250.74 434.216 1256.68C437.812 1262.61 439.607 1269.71 439.607 1277.96C439.607 1282.82 438.84 1287.71 437.299 1292.62C435.757 1297.54 433.338 1301.95 430.024 1305.85C426.719 1309.75 422.355 1312.91 416.935 1315.34C411.522 1317.77 404.985 1318.99 397.346 1318.99H379.209V1361.72H359.188V1238.28H394.435ZM397.175 1299.66C401.62 1299.66 405.305 1298.93 408.209 1297.46C411.12 1295.99 413.399 1294.15 415.051 1291.95C416.712 1289.74 417.903 1287.4 418.648 1284.91C419.392 1282.42 419.757 1280.22 419.757 1278.3C419.757 1276.26 419.414 1274.06 418.737 1271.68C418.052 1269.31 416.935 1267.02 415.394 1264.82C413.86 1262.61 411.634 1260.8 408.723 1259.39C405.811 1257.98 402.133 1257.27 397.688 1257.27H379.209V1299.66H397.175Z" fill="black"/>
<path d="M489.061 1238.28H571.706V1257.27H509.082V1290.17H564.856V1309.16H509.082V1342.73H574.096V1361.72H489.061V1238.28Z" fill="black"/>
<path d="M736.476 1366.13L640.83 1274.23L646.817 1276.6L647.159 1361.72H626.967V1234.04H627.994L721.935 1325.94L717.482 1324.59L717.14 1238.28H736.99V1366.13H736.476Z" fill="black"/>
<path d="M897.976 1238.28V1361.72H877.955V1309.33H816.701V1361.72H796.68V1238.28H816.701V1290.33H877.955V1238.28H897.976Z" fill="black"/>
<path d="M957.519 1238.28H1040.16V1257.27H977.54V1290.17H1033.32V1309.16H977.54V1342.73H1042.56V1361.72H957.519V1238.28Z" fill="black"/>
<path d="M1095.43 1238.28H1115.45V1361.72H1095.43V1238.28Z" fill="black"/>
<path d="M1175 1361.72V1233.87H1175.17L1242.24 1327.98L1233.68 1326.11L1300.42 1233.87H1300.76V1361.72H1280.91V1278.47L1282.11 1288.47L1237.11 1351.71H1236.76L1190.91 1288.47L1194.33 1279.31V1361.72H1175Z" fill="black"/>
<path d="M1360.3 1238.28H1442.95V1257.27H1380.32V1290.17H1436.1V1309.16H1380.32V1342.73H1445.34V1361.72H1360.3V1238.28Z" fill="black"/>
<path d="M1533.46 1238.28C1540.3 1238.28 1546.55 1239.19 1552.2 1240.99C1557.84 1242.8 1562.69 1245.37 1566.74 1248.71C1570.79 1252.04 1573.9 1256.14 1576.06 1261C1578.24 1265.86 1579.32 1271.51 1579.32 1277.96C1579.32 1282.82 1578.57 1287.68 1577.09 1292.54C1575.61 1297.4 1573.19 1301.81 1569.82 1305.76C1566.46 1309.72 1562.04 1312.89 1556.56 1315.26C1551.08 1317.63 1544.35 1318.82 1536.37 1318.82H1518.23V1361.72H1498.21V1238.28H1533.46ZM1536.03 1299.66C1540.36 1299.66 1544.01 1298.98 1546.98 1297.63C1549.94 1296.27 1552.28 1294.52 1553.99 1292.37C1555.71 1290.22 1556.93 1287.93 1557.67 1285.5C1558.42 1283.07 1558.78 1280.78 1558.78 1278.64C1558.78 1276.6 1558.44 1274.37 1557.75 1271.94C1557.08 1269.51 1555.9 1267.16 1554.25 1264.9C1552.6 1262.64 1550.35 1260.8 1547.5 1259.39C1544.64 1257.98 1541.05 1257.27 1536.71 1257.27H1518.23V1299.66H1536.03ZM1557.58 1311.7L1589.41 1361.72H1566.15L1533.8 1312.21L1557.58 1311.7Z" fill="black"/>
<path d="M1718.26 1238.28H1800.9V1257.27H1738.27V1290.17H1794.05V1309.16H1738.27V1342.73H1803.29V1361.72H1718.26V1238.28Z" fill="black"/>
<path d="M1965.67 1366.13L1870.03 1274.23L1876.01 1276.6L1876.36 1361.72H1856.17V1234.04H1857.19L1951.13 1325.94L1946.68 1324.59L1946.34 1238.28H1966.19V1366.13H1965.67Z" fill="black"/>
<path d="M2025.91 1238.28H2108.55V1257.27H2045.92V1290.17H2101.7V1309.16H2045.92V1342.73H2110.94V1361.72H2025.91V1238.28Z" fill="black"/>
<path d="M2199.06 1238.28C2205.91 1238.28 2212.15 1239.19 2217.8 1240.99C2223.45 1242.8 2228.29 1245.37 2232.34 1248.71C2236.39 1252.04 2239.5 1256.14 2241.67 1261C2243.84 1265.86 2244.92 1271.51 2244.92 1277.96C2244.92 1282.82 2244.18 1287.68 2242.69 1292.54C2241.21 1297.4 2238.79 1301.81 2235.43 1305.76C2232.06 1309.72 2227.64 1312.89 2222.16 1315.26C2216.69 1317.63 2209.95 1318.82 2201.97 1318.82H2183.84V1361.72H2163.81V1238.28H2199.06ZM2201.63 1299.66C2205.96 1299.66 2209.61 1298.98 2212.58 1297.63C2215.55 1296.27 2217.88 1294.52 2219.6 1292.37C2221.31 1290.22 2222.54 1287.93 2223.27 1285.5C2224.02 1283.07 2224.39 1280.78 2224.39 1278.64C2224.39 1276.6 2224.05 1274.37 2223.36 1271.94C2222.68 1269.51 2221.51 1267.16 2219.85 1264.9C2218.2 1262.64 2215.95 1260.8 2213.1 1259.39C2210.24 1257.98 2206.65 1257.27 2202.32 1257.27H2183.84V1299.66H2201.63ZM2223.19 1311.7L2255.01 1361.72H2231.75L2199.4 1312.21L2223.19 1311.7Z" fill="black"/>
<path d="M2399.6 1350.36C2397.78 1351.83 2395.35 1353.32 2392.33 1354.85C2389.3 1356.38 2385.83 1357.73 2381.89 1358.92C2377.96 1360.11 2373.94 1361.1 2369.83 1361.89C2365.72 1362.68 2361.9 1363.07 2358.37 1363.07C2348.21 1363.07 2339.11 1361.55 2331.07 1358.5C2323.03 1355.44 2316.16 1351.23 2310.45 1345.86C2304.75 1340.5 2300.36 1334.17 2297.28 1326.87C2294.2 1319.58 2292.66 1311.53 2292.66 1302.71C2292.66 1292.09 2294.4 1282.68 2297.88 1274.48C2301.36 1266.29 2306.03 1259.39 2311.91 1253.8C2317.78 1248.2 2324.57 1243.99 2332.27 1241.16C2339.97 1238.34 2348.1 1236.92 2356.65 1236.92C2364.18 1236.92 2371.17 1237.77 2377.61 1239.47C2384.06 1241.16 2389.62 1243.31 2394.3 1245.91L2387.62 1264.22C2385.45 1262.87 2382.69 1261.65 2379.33 1260.58C2375.96 1259.5 2372.51 1258.6 2368.97 1257.87C2365.44 1257.13 2362.19 1256.76 2359.22 1256.76C2352.15 1256.76 2345.76 1257.75 2340.06 1259.73C2334.36 1261.71 2329.51 1264.62 2325.51 1268.46C2321.52 1272.31 2318.47 1276.97 2316.36 1282.45C2314.24 1287.93 2313.19 1294.12 2313.19 1301.02C2313.19 1307.46 2314.33 1313.28 2316.61 1318.48C2318.9 1323.68 2322 1328.15 2325.94 1331.88C2329.87 1335.61 2334.64 1338.46 2340.23 1340.44C2345.81 1342.42 2351.98 1343.41 2358.71 1343.41C2362.59 1343.41 2366.35 1343.07 2370 1342.39C2373.65 1341.71 2376.79 1340.64 2379.41 1339.17V1318.65H2355.97V1299.49H2399.6V1350.36Z" fill="black"/>
<path d="M2483.44 1321.53L2437.42 1238.28H2461.88L2496.96 1304.75L2490.8 1305.09L2525.53 1238.28H2550L2503.29 1321.53V1361.72H2483.44V1321.53Z" fill="black"/>
</svg>
